<?xml version="1.0" standalone="no"?>
<!DOCTYPE svg PUBLIC "-//W3C//DTD SVG 20010904//EN"
 "http://www.w3.org/TR/2001/REC-SVG-20010904/DTD/svg10.dtd">
<svg version="1.0" xmlns="http://www.w3.org/2000/svg"
 width="1000.000000pt" height="1002.000000pt" viewBox="0 0 1000.000000 1002.000000"
 preserveAspectRatio="xMidYMid meet">

<g transform="translate(0.000000,1002.000000) scale(0.100000,-0.100000)"
fill="#000000" stroke="none">
<path d="M2615 6205 c-213 -34 -393 -125 -537 -272 -78 -78 -107 -116 -150
-193 -17 -30 -47 -82 -68 -115 -43 -70 -159 -264 -187 -315 -21 -36 -125 -213
-329 -555 -65 -110 -121 -204 -123 -210 -2 -5 -15 -27 -28 -48 -82 -131 -104
-207 -84 -290 24 -95 85 -172 175 -220 39 -21 55 -22 321 -25 339 -3 669 10
745 30 188 50 388 184 502 337 24 31 130 205 237 386 107 182 204 346 216 365
63 97 391 662 413 710 34 73 35 175 3 240 -27 52 -93 125 -135 147 -74 39
-125 43 -514 42 -250 -1 -404 -6 -457 -14z m-198 -623 c8 -5 13 -42 15 -102
l3 -95 95 -5 95 -5 0 -75 0 -75 -95 -5 -95 -5 -3 -164 c-2 -138 0 -168 14
-189 17 -26 10 -25 128 -10 15 3 23 -11 42 -67 13 -38 21 -77 19 -86 -9 -28
-102 -53 -200 -53 -75 -1 -97 3 -132 21 -46 25 -97 82 -108 122 -4 14 -11 116
-14 226 l-6 200 -50 5 -50 5 -3 57 c-4 80 8 98 63 98 l45 0 0 89 c0 49 3 96 6
105 5 13 25 16 113 16 58 0 111 -4 118 -8z"/>
<path d="M4058 5920 c-45 -8 -103 -50 -124 -92 -21 -41 -15 -129 12 -165 46
-62 116 -87 195 -73 144 26 189 208 74 295 -40 31 -100 44 -157 35z"/>
<path d="M4760 5454 c-251 -55 -410 -251 -410 -506 0 -86 29 -200 67 -267 39
-66 128 -151 201 -189 149 -80 399 -83 560 -7 214 101 320 330 272 586 -26
135 -133 276 -254 333 -132 63 -293 81 -436 50z m273 -280 c25 -18 52 -50 69
-83 24 -46 28 -65 28 -138 0 -47 -5 -103 -11 -124 -27 -89 -112 -149 -212
-149 -72 0 -113 17 -160 65 -47 48 -67 110 -67 206 0 98 22 151 85 207 54 48
67 51 158 47 57 -2 76 -8 110 -31z"/>
<path d="M6061 5448 c-48 -16 -78 -36 -125 -80 -33 -32 -64 -58 -68 -58 -5 0
-8 34 -8 75 l0 75 -155 0 c-137 0 -155 -2 -163 -17 -7 -14 -10 -850 -3 -975
l1 -28 160 0 160 0 0 264 c0 301 7 347 58 407 47 54 79 69 155 69 70 0 112
-20 150 -72 30 -41 36 -99 36 -395 l1 -273 160 0 160 0 0 348 c0 197 -5 366
-11 392 -26 119 -90 204 -186 252 -60 29 -78 33 -163 36 -76 2 -108 -2 -159
-20z"/>
<path d="M7004 5450 c-135 -35 -222 -95 -292 -200 -60 -90 -83 -172 -84 -300
0 -120 17 -195 63 -277 36 -63 133 -155 201 -189 101 -51 285 -68 423 -39 136
29 298 132 275 175 -10 18 -133 132 -150 138 -5 2 -27 -10 -50 -27 -126 -91
-306 -78 -391 29 -16 19 -31 50 -35 68 l-6 32 350 0 c394 0 362 -7 362 83 0
201 -104 393 -256 471 -107 55 -279 71 -410 36z m258 -232 c21 -12 48 -37 60
-56 26 -42 40 -103 27 -118 -6 -7 -72 -12 -199 -13 -211 -2 -213 -2 -191 61
48 136 184 193 303 126z"/>
<path d="M7958 5455 c-109 -30 -194 -95 -234 -180 -34 -71 -34 -177 0 -244 46
-90 103 -126 298 -190 175 -58 210 -84 194 -145 -20 -81 -277 -51 -425 49 -19
13 -38 22 -43 19 -15 -9 -100 -186 -95 -198 7 -18 158 -94 222 -111 171 -45
353 -37 472 21 122 59 183 150 183 276 0 70 -16 113 -66 172 -48 58 -89 79
-262 137 -80 26 -157 57 -171 67 -36 27 -41 84 -9 106 47 33 188 14 316 -45
36 -16 70 -29 76 -29 11 0 107 176 106 196 0 19 -128 72 -240 100 -69 17 -259
17 -322 -1z"/>
<path d="M3947 5454 c-4 -4 -7 -239 -7 -523 0 -326 -4 -530 -10 -553 -6 -21
-20 -43 -32 -49 -26 -14 -111 -13 -138 1 -32 17 -47 6 -63 -47 -8 -26 -24 -71
-36 -100 -24 -61 -19 -70 50 -95 169 -62 356 -33 457 71 20 21 48 60 62 87
l25 49 0 580 0 580 -151 3 c-82 1 -153 -1 -157 -4z"/>
</g>
</svg>
